<?xml version="1.0" encoding="utf-8"?>
<!-- Generator: Adobe Illustrator 19.2.1, SVG Export Plug-In . SVG Version: 6.00 Build 0)  -->
<svg version="1.1" id="Layer_1" xmlns="http://www.w3.org/2000/svg" xmlns:xlink="http://www.w3.org/1999/xlink" x="0px" y="0px"
	 viewBox="0 0 512 512" style="enable-background:new 0 0 512 512;" xml:space="preserve">
<style type="text/css">
	.st0{fill:#7D7D7D;}
	.st1{fill:none;}
	.st2{fill:#FFFFFF;}
</style>
<g>
	<g>
		<g>
			<path class="st0" d="M426.7,42.7H85.3c-23.5,0-42.7,19.2-42.7,42.7v341.3c0,23.5,19.2,42.7,42.7,42.7h341.3
				c23.5,0,42.7-19.2,42.7-42.7V85.3C469.3,61.9,450.1,42.7,426.7,42.7z"/>
		</g>
		<g>
			<rect class="st1" width="512" height="512"/>
		</g>
	</g>
</g>
<g>
	<g>
		<g>
			<g>
				<g>
					<path class="st2" d="M139.1,254.2c-1.5-38.3,32.1-73.8,70.5-74.2c19.6-1.7,38.6,5.9,53.4,18.3c-6.1,6.7-12.3,13.3-18.9,19.5
						c-13-7.9-28.7-14-44-8.6c-24.6,7-39.5,36-30.4,60c7.5,25.1,38.1,38.9,62,28.3c12.4-4.4,20.6-15.9,24.1-28.2
						c-14.2-0.3-28.4-0.1-42.6-0.5c0-8.4-0.1-16.9,0-25.3c23.7,0,47.4-0.1,71.1,0.1c1.5,20.7-1.6,42.8-15.1,59.5
						c-18.4,23.7-52.5,30.7-80.2,21.4C159.9,314.8,138.5,285.2,139.1,254.2z"/>
					<path class="st2" d="M330.7,222.3c7,0,14.1,0,21.1,0c0,7.1,0.1,14.2,0.1,21.2c7.1,0.1,14.2,0.1,21.2,0.1c0,7.1,0,14.1,0,21.2
						c-7.1,0-14.2,0.1-21.2,0.1c-0.1,7.1-0.1,14.2-0.1,21.3c-7.1,0-14.1,0-21.2,0c-0.1-7.1-0.1-14.2-0.1-21.2
						c-7.1-0.1-14.2-0.1-21.2-0.1c0-7.1,0-14.1,0-21.2c7.1,0,14.1-0.1,21.2-0.1C330.5,236.4,330.6,229.3,330.7,222.3z"/>
				</g>
			</g>
		</g>
		<g>
			<rect x="0" y="-1.6" class="st1" width="512" height="512"/>
		</g>
	</g>
</g>
</svg>
